# xmcd CD database file
#
# Track frame offsets:
#	150
#	17582
#	30930
#	44149
#	60444
#
# Disc length: 1092 seconds
#
# Revision: 0
# Processed by: cddbd v1.5.2PL0 Copyright (c) Steve Scherf et al.
# Submitted via: CDex 1.51
#
DISCID=34044205
DTITLE=Jacqui Ryan - A Moment In Time
DYEAR=1900
DGENRE=Country
TTITLE0=Jacqui Ryan  - Don't Walk Away
TTITLE1=Jacqui Ryan  - Baby Baby
TTITLE2=Jacqui Ryan  - Close To Crazy
TTITLE3=Jacqui Ryan - Unlucky In Love
TTITLE4=Jacqui Ryan - Stop
EXTD=
EXTT0=
EXTT1=
EXTT2=
EXTT3=
EXTT4=
PLAYORDER=
